<svg xmlns="http://www.w3.org/2000/svg" viewBox="0 0 504.13 504.13"><circle cx="252.07" cy="252.07" r="252.07" style="fill:#ff5035"/><path d="M378.19,151.26c0-11.5-6.26-17.67-17.82-17.67H304.82q-55.56,0-111.11,0c-8.81,0-15.1,5.4-16.24,13.65-.75,5.45-1.3,5.95-6.75,5.95H109.8c-11.51,0-17.84,6.25-17.85,17.65q0,21.27,0,42.54c0,11.74,6.23,18,17.94,18,5.22,0,10.43,0,15.71,0,0,13.76-.19,26.91.14,40.05.08,3.37,2.54,6.71,2.53,10.06s-2.45,6.73-2.56,10.14c-.36,10.84-.16,21.71-.13,32.56,0,11,6.29,17.24,17.41,17.29,10.09,0,20.18.13,30.26-.07,3.22-.06,4.08.93,4.07,4.09,0,2.66,0,5.31,0,8q5.91.54,11.82,1V336.31c0-30.66.09-61.33-.1-92a49.23,49.23,0,0,0-2.2-14.26c-2.23-7.1-7-10.07-14.5-10.08q-30.84,0-61.69,0c-6,0-6.85-.83-6.85-6.85q0-20.9,0-41.78c0-5.38.91-6.27,6.23-6.27h61.7c10.34,0,16.11-5.07,17.36-15.4.35-2.86,1.82-4,4.48-4.17.89,0,1.79,0,2.68,0H358.69c7.27,0,7.63.37,7.63,7.52v205.2c4-.16,7.92-.32,11.89-.51Q378.2,254.47,378.19,151.26ZM137.37,236.39c0-3,1.86-4.44,4.65-4.47,10.32-.12,20.64-.19,31-.09,1,0,2.23,1.14,2.79,2.09a8.22,8.22,0,0,1,1.08,4c.08,12.09.05,24.19.05,36.83-12,0-23.86,0-35.68,0-2.7,0-3.83-1.88-3.85-4.32Q137.29,253.41,137.37,236.39Zm0,55.45c0-2.48.57-5,3.52-5,12-.15,23.92-.07,36.18-.07v43.05H161.26c-6.26,0-12.51-.05-18.76,0-3.56.05-5.17-1.64-5.16-5.09Q137.34,308.3,137.35,291.84Z" style="fill:#fff"/><path d="M366.31,353.08c-.07,5.16-1,5.85-6.6,5.85l-163.62,0c-.9,0-1.79,0-2.68,0-3-.05-4.41-1.13-4.39-4.58v-2.08q-5.88-.28-11.77-.62v7c0,1.65-.32,3.5.28,4.92.73,1.73,2,4,3.55,4.46a48.56,48.56,0,0,0,13.43,2.46q83.33.24,166.66.09c10.55,0,16.91-6.34,17-16.91v-.85Z" style="fill:#fff"/><path d="M273.83,207.83H224.47a17.91,17.91,0,0,1-3.81-.2c-3.12-.69-4.91-2.64-4.84-5.94.06-3.12,1.84-4.91,4.79-5.58a12.4,12.4,0,0,1,2.66-.19H325.44c4.22.18,7,2.65,6.87,6.11s-2.74,5.72-6.82,5.76c-8.42.09-16.84,0-25.26,0Z" style="fill:#fff"/><path d="M273.81,274.89q25.07,0,50.13,0c1.39,0,3.19-.25,4.08.48,1.7,1.43,3.94,3.44,4,5.27s-2,4-3.65,5.52c-.81.77-2.66.6-4,.6q-50.32,0-100.65,0c-1.5,0-3.48.12-4.39-.72-1.52-1.41-3.29-3.59-3.23-5.39s2-3.83,3.56-5.15c1-.8,2.93-.59,4.44-.59Q248.93,274.87,273.81,274.89Z" style="fill:#fff"/><path d="M273.67,326c-16.84,0-33.68,0-50.52-.06-1.79,0-4.25-.38-5.21-1.56a8.69,8.69,0,0,1-1.74-6.1c.44-3,3.14-4,6.1-4H324.09c.64,0,1.28,0,1.91,0,3.81.22,6.3,2.5,6.31,5.79s-2.65,5.91-6.6,5.93c-9.69.07-19.39,0-29.08,0h-23Z" style="fill:#fff"/><path d="M274.08,235.27h49c1,0,2,0,3.06,0,3.73.22,6.27,2.65,6.2,5.9S329.7,247,326,247c-9.57.09-19.14,0-28.7,0H223.8a19.8,19.8,0,0,1-2.67-.06,5.75,5.75,0,0,1-5.33-5.92,5.44,5.44,0,0,1,5.47-5.7c5-.2,9.95-.1,14.92-.1h37.89Z" style="fill:#fff"/></svg>